<?xml version="1.0" encoding="UTF-8"?>
<svg id="layer" xmlns="http://www.w3.org/2000/svg" version="1.1" viewBox="0 0 128.75 128.75">
  <!-- Generator: Adobe Illustrator 30.2.1, SVG Export Plug-In . SVG Version: 2.1.1 Build 1)  -->
  <defs>
    <style>
      .st0 {
        fill: none;
        stroke: #000;
        stroke-miterlimit: 10;
        stroke-width: 2px;
      }
    </style>
  </defs>
  <path class="st0" d="M123.17,58.1c-4.86-.87-9.1-4.32-10.73-9.35-1.63-5.02-.23-10.3,3.18-13.87-2.1-3.64-4.57-7.05-7.37-10.15-4.45,2.15-9.9,1.85-14.17-1.25-4.28-3.11-6.25-8.2-5.57-13.09-3.78-1.69-7.77-3.01-11.92-3.88-2.33,4.36-6.92,7.33-12.21,7.33s-9.88-2.97-12.21-7.33c-4.15.87-8.14,2.19-11.92,3.88.67,4.89-1.3,9.99-5.57,13.09-4.27,3.11-9.73,3.41-14.17,1.25-2.8,3.1-5.27,6.51-7.37,10.15,3.42,3.56,4.82,8.84,3.18,13.87-1.63,5.03-5.87,8.48-10.73,9.35-.22,2.06-.33,4.15-.33,6.27s.12,4.21.33,6.27c4.86.87,9.1,4.32,10.73,9.35,1.63,5.02.23,10.3-3.18,13.87,2.1,3.64,4.57,7.05,7.37,10.15,4.45-2.15,9.9-1.85,14.17,1.25,4.28,3.11,6.25,8.2,5.57,13.09,3.78,1.69,7.77,3.01,11.92,3.88,2.33-4.36,6.92-7.33,12.21-7.33s9.88,2.97,12.21,7.33c4.15-.87,8.14-2.19,11.92-3.88-.67-4.89,1.3-9.99,5.57-13.09,4.27-3.11,9.73-3.41,14.17-1.25,2.8-3.1,5.27-6.51,7.37-10.15-3.42-3.56-4.82-8.84-3.18-13.87,1.63-5.03,5.87-8.48,10.73-9.35.22-2.06.33-4.15.33-6.27s-.12-4.21-.33-6.27Z"/>
  <g>
    <path class="st0" d="M64.37,16.41"/>
    <path class="st0" d="M16.41,64.38"/>
    <path class="st0" d="M16.41,64.38"/>
    <path class="st0" d="M64.37,112.34"/>
    <path class="st0" d="M112.34,64.38"/>
    <path class="st0" d="M64.37,16.41"/>
    <path class="st0" d="M25.48,64.38c0-21.48,17.42-38.9,38.9-38.9"/>
    <path class="st0" d="M25.48,64.38"/>
    <path class="st0" d="M64.37,103.27"/>
    <path class="st0" d="M103.27,64.38c0,21.48-17.42,38.9-38.9,38.9"/>
    <path class="st0" d="M103.27,64.38"/>
    <path class="st0" d="M64.37,25.48"/>
    <path class="st0" d="M34.54,64.38c0-16.48,13.36-29.83,29.83-29.83"/>
    <path class="st0" d="M34.54,64.38"/>
    <path class="st0" d="M64.37,94.21"/>
    <path class="st0" d="M94.21,64.38c0,16.48-13.36,29.83-29.83,29.83"/>
    <path class="st0" d="M94.21,64.38"/>
    <path class="st0" d="M64.37,34.54"/>
    <path class="st0" d="M43.61,64.38c0-11.47,9.3-20.77,20.77-20.77"/>
    <path class="st0" d="M85.14,64.38c0,11.47-9.3,20.77-20.77,20.77"/>
    <path class="st0" d="M85.14,64.38"/>
    <path class="st0" d="M64.37,43.61"/>
    <path class="st0" d="M52.67,64.38c0-6.46,5.24-11.7,11.7-11.7"/>
    <path class="st0" d="M52.67,64.38"/>
    <path class="st0" d="M64.37,76.08"/>
    <path class="st0" d="M76.08,64.38c0,6.46-5.24,11.7-11.7,11.7"/>
    <path class="st0" d="M76.08,64.38"/>
    <path class="st0" d="M64.37,52.67"/>
  </g>
  <circle class="st0" cx="64.38" cy="64.38" r="6.11"/>
</svg>