<?xml version="1.0" encoding="UTF-8"?>
<svg id="Layer_1" xmlns="http://www.w3.org/2000/svg" version="1.1" viewBox="0 0 307.35 47.64">
  <!-- Generator: Adobe Illustrator 29.8.5, SVG Export Plug-In . SVG Version: 2.1.1 Build 2)  -->
  <defs>
    <style>
      .st0 {
        fill: none;
        stroke: #000;
        stroke-width: 2px;
      }
    </style>
  </defs>
  <polygon class="st0" points="262.85 30.44 262.85 26.16 296.04 26.16 296.04 20.8 262.85 20.8 262.85 16.52 303.43 16.52 303.43 6.35 252.71 6.35 252.71 16.52 249.47 16.52 249.47 30.44 252.81 30.44 252.81 40.61 303.54 40.61 303.54 30.44 262.85 30.44"/>
  <polygon class="st0" points="212.13 30.44 212.13 26.16 245.32 26.16 245.32 20.8 212.13 20.8 212.13 16.52 252.71 16.52 252.71 6.35 209.33 6.35 198.74 15.29 198.74 31.31 209.87 40.61 252.81 40.61 252.81 30.44 212.13 30.44"/>
  <path class="st0" d="M65.42,40.61h14.72l3.33-5.19h24.89l3.34,5.17.02.03h17.08l11.75-10.21,11.81,10.21h16.81l.15-.13,11.59-10.07,11.81,10.21h17.13l-20.66-17.27,20.12-16.99h-17.13l-11.24,9.88-11.24-9.88h-17.89l-11.24,9.88-11.24-9.88h-17.13l20.09,16.97-11.2,9.39-17.83-26.36h-14.88l-15.86,23.67-11.22-23.67h-16.17l-12.67,26.72L18.91,6.35H3.81l19.16,34.26h18.09l12.15-23.73,12.15,23.73h.05ZM88.64,27.39l7.24-11.27,7.3,11.27h-14.53ZM148.84,23.34l11.94-10.08,11.9,10.05-11.92,9.99-11.92-9.97Z"/>
</svg>