<?xml version="1.0" encoding="UTF-8"?>
<svg id="Layer_1" data-name="Layer 1" xmlns="http://www.w3.org/2000/svg" viewBox="0 0 301.46 36.28">
  <defs>
    <style>
      .cls-1 {
        fill: none;
        stroke: #000;
        stroke-width: 2px;
      }
    </style>
  </defs>
  <polyline class="cls-1" points="255.3 35.26 300.46 35.26 300.46 25.09 260.75 25.09 260.75 20.81 293.94 20.81 293.94 15.45 260.75 15.45 260.75 11.17 300.35 11.17 300.35 1 255.2 1"/>
  <polygon class="cls-1" points="210.03 25.09 210.03 20.81 243.22 20.81 243.22 15.45 210.03 15.45 210.03 11.17 255.2 11.17 255.2 1 207.23 1 196.64 9.94 196.64 25.96 207.77 35.26 255.3 35.26 255.3 25.09 210.03 25.09"/>
  <path class="cls-1" d="M69.52,22.8L59.19,1.02h-16.17l-10.33,21.78h-4.84S16.81,1,16.81,1H1.71l1.45,2.59,17.71,31.67h18.09l12.15-23.73,12.15,23.73h.06s14.72,0,14.72,0l3.33-5.19h24.89l3.34,5.17.02.03h17.08l11.75-10.21,11.81,10.21h16.81l.15-.13,11.59-10.07,11.81,10.21h17.13l-20.66-17.27L207.2,1.02h-17.13l-11.24,9.88-11.24-9.88h-17.89l-11.24,9.88-11.24-9.88h-17.13l20.09,16.97-11.2,9.39L101.15,1.02h-14.88l-14.6,21.78h-2.16ZM86.54,22.04l7.24-11.27,7.3,11.27h-14.54ZM158.68,7.91l11.9,10.05-11.92,9.99-11.92-9.95,11.94-10.09Z"/>
  <line class="cls-1" x1="249.63" y1="25.09" x2="249.63" y2="11.17"/>
</svg>