<?xml version="1.0" encoding="UTF-8"?>
<svg id="Layer_1" xmlns="http://www.w3.org/2000/svg" version="1.1" viewBox="0 0 563 398">
  <!-- Generator: Adobe Illustrator 30.2.1, SVG Export Plug-In . SVG Version: 2.1.1 Build 1)  -->
  <path d="M542.7,66.1c-6.2-23.7-24.8-42.3-48.3-48.6-42.5-11.5-213.3-11.5-213.3-11.5,0,0-170.8,0-213.4,11.5-23.5,6.3-42,24.9-48.3,48.6-11.4,42.9-11.4,132.3-11.4,132.3,0,0,0,89.4,11.4,132.3,6.3,23.6,24.8,41.5,48.3,47.8,42.6,11.5,213.4,11.5,213.4,11.5,0,0,170.8,0,213.4-11.5,23.5-6.3,42-24.2,48.3-47.8,11.4-42.9,11.4-132.3,11.4-132.3,0,0,0-89.4-11.4-132.3h-.1ZM225.2,279.6V117.2l142.7,81.2-142.7,81.2Z"/>
</svg>